<svg id="Ebene_1" data-name="Ebene 1" xmlns="http://www.w3.org/2000/svg" xmlns:xlink="http://www.w3.org/1999/xlink" viewBox="0 0 662.79 204"><defs><style>.cls-1{fill:none;}.cls-2{clip-path:url(#clip-path);}.cls-3{fill:#f7c401;}.cls-4{fill:#fff;fill-rule:evenodd;}.cls-5{isolation:isolate;}</style><clipPath id="clip-path" transform="translate(0 0)"><rect class="cls-1" width="665" height="204"/></clipPath></defs><g class="cls-2"><g id="agrantis-logo-gesamt-ohne-claim"><g id="Gruppe_4724" data-name="Gruppe 4724"><g id="Gruppe_10" data-name="Gruppe 10"><rect id="Rechteck_2" data-name="Rechteck 2" class="cls-3" width="204" height="204" rx="40"/><path id="Pfad_7" data-name="Pfad 7" class="cls-4" d="M145,61.59c-16.9,8.23-26.58,14-31.91,20.63l-2.81,4.39c-3.35,6.69-4,15.31-4.12,28.49l0,10.25c4.38-5.44,10.76-10.15,20.26-15.44C144,98.7,145,89,145,61.59m-52,25-2.83-4.42c-5.33-6.66-15-12.4-31.9-20.62.05,27.4,1,37.12,18.6,48.32,9.5,5.3,15.89,10,20.27,15.44l0-10.25C97,101.93,96.36,93.31,93,86.63ZM89.19,130c-4-4.13-9-7.63-14.8-11.09l-2.27-1.4c-4-2.19-8.54-4.52-13.83-7.09,0,28.46,1.08,37.84,20.71,49.62,6.32,3.8,12,7.74,16.66,12.6l1.49,1.64,0-10.35C97,148,96.07,138.73,90.53,131.49Zm23.56,1.48c-5.54,7.24-6.44,16.52-6.59,32.45l0,10.35,1.49-1.63v0c4.62-4.83,10.31-8.77,16.66-12.58C143.92,148.27,145,138.89,145,110.43c-5.29,2.58-9.87,4.9-13.83,7.1l-2.28,1.4c-5.73,3.43-10.81,6.94-14.8,11.09Z" transform="translate(0 0)"/><path id="Pfad_10" data-name="Pfad 10" class="cls-4" d="M105.69,77.07c10.34-16.88,10-23.82-4-47.87-14.09,24.05-14.39,31-4,47.87a33.1,33.1,0,0,1,3.46,5.46l.59.9.59-.9A34.93,34.93,0,0,1,105.69,77.07Z" transform="translate(0 0)"/></g><g id="Gruppe_16" data-name="Gruppe 16"><g id="agrantis" class="cls-5"><g class="cls-5"><path d="M280.24,135.06a23.31,23.31,0,0,1-12.66-3.5,24.85,24.85,0,0,1-8.8-9.54,30.92,30.92,0,0,1,0-27.56,24.85,24.85,0,0,1,8.8-9.54,23.31,23.31,0,0,1,12.66-3.5,21.4,21.4,0,0,1,9.38,2A18.32,18.32,0,0,1,296.46,89a15,15,0,0,1,3,8.11v22.26a15.25,15.25,0,0,1-2.92,8.11,17.77,17.77,0,0,1-6.83,5.57A21.79,21.79,0,0,1,280.24,135.06Zm3.29-14.63A10.87,10.87,0,0,0,291.9,117a12.4,12.4,0,0,0,3.18-8.75,13.67,13.67,0,0,0-1.43-6.36,10.49,10.49,0,0,0-4-4.29,12.4,12.4,0,0,0-12,0,11.17,11.17,0,0,0-4.14,4.29,13.9,13.9,0,0,0-.05,12.62,11.12,11.12,0,0,0,4.13,4.34A11.34,11.34,0,0,0,283.53,120.43ZM294.45,134V120.11l2.43-12.5L294.45,95.1V82.48h15.9V134Z" transform="translate(0 0)"/><path d="M343.1,132.41A23.61,23.61,0,0,1,330.48,129a24.32,24.32,0,0,1-8.69-9.22,28,28,0,0,1,0-25.92A23.58,23.58,0,0,1,343.1,81.42a22.27,22.27,0,0,1,9.49,2,17.36,17.36,0,0,1,6.78,5.52,15.37,15.37,0,0,1,2.91,8.21v19.61a15.24,15.24,0,0,1-2.91,8.11,17.73,17.73,0,0,1-6.84,5.57A21.72,21.72,0,0,1,343.1,132.41Zm.74,24.7A35.55,35.55,0,0,1,329,154.19,24.36,24.36,0,0,1,318.82,146l10-10a19,19,0,0,0,6.2,5,18.7,18.7,0,0,0,8.32,1.69q6,0,9.49-3c2.29-2,3.44-4.77,3.44-8.37V118.21L359,107l-2.44-11.24V82.48h15.9v48.45a25.15,25.15,0,0,1-3.71,13.78,25.48,25.48,0,0,1-10.18,9.11A32.07,32.07,0,0,1,343.84,157.11ZM346.17,118a11.26,11.26,0,0,0,5.88-1.48,10,10,0,0,0,3.82-4,12,12,0,0,0,1.33-5.68,12.24,12.24,0,0,0-1.33-5.72,9.94,9.94,0,0,0-3.82-4,12.32,12.32,0,0,0-11.71,0,10.26,10.26,0,0,0-3.92,4,12.23,12.23,0,0,0,0,11.29,10.27,10.27,0,0,0,3.87,4.08A11.26,11.26,0,0,0,346.17,118Z" transform="translate(0 0)"/><path d="M384.12,134V82.48h16.22V134Zm16.22-28.3-6.79-5.3q2-9,6.79-14t13.25-5a17.7,17.7,0,0,1,6.52,1.12A13.24,13.24,0,0,1,425,86l-9.65,12.19a7.12,7.12,0,0,0-2.65-1.8,9.71,9.71,0,0,0-3.6-.64,8.51,8.51,0,0,0-6.42,2.49Q400.34,100.73,400.34,105.7Z" transform="translate(0 0)"/><path d="M449.63,135.06a23.32,23.32,0,0,1-12.67-3.5,24.93,24.93,0,0,1-8.8-9.54,31,31,0,0,1,0-27.56,24.93,24.93,0,0,1,8.8-9.54,23.32,23.32,0,0,1,12.67-3.5,21.4,21.4,0,0,1,9.38,2A18.32,18.32,0,0,1,465.85,89a15.05,15.05,0,0,1,3,8.11v22.26a15.24,15.24,0,0,1-2.91,8.11,17.73,17.73,0,0,1-6.84,5.57A21.75,21.75,0,0,1,449.63,135.06Zm3.28-14.63a10.88,10.88,0,0,0,8.38-3.44,12.4,12.4,0,0,0,3.18-8.75,13.67,13.67,0,0,0-1.43-6.36,10.56,10.56,0,0,0-4-4.29,12.42,12.42,0,0,0-12,0,11.21,11.21,0,0,0-4.13,4.29,12.8,12.8,0,0,0-1.54,6.36,13,13,0,0,0,1.48,6.26,11.15,11.15,0,0,0,4.14,4.34A11.28,11.28,0,0,0,452.91,120.43ZM463.83,134V120.11l2.44-12.5L463.83,95.1V82.48h15.9V134Z" transform="translate(0 0)"/><path d="M491.39,134V82.48h16.22V134Zm34,0V104.64a8.85,8.85,0,0,0-2.49-6.52,8.58,8.58,0,0,0-6.31-2.49A9.47,9.47,0,0,0,512,96.74a8.06,8.06,0,0,0-3.19,3.18,9.51,9.51,0,0,0-1.16,4.72l-6.26-3.08A20.8,20.8,0,0,1,504,91a18.24,18.24,0,0,1,7.37-7A22.5,22.5,0,0,1,522,81.42a19,19,0,0,1,10.13,2.71,19.81,19.81,0,0,1,6.94,7.15,19.28,19.28,0,0,1,2.54,9.75v33Z" transform="translate(0 0)"/><path d="M547.25,96.26V82.48h39.54V96.26ZM558.91,134V61.18h16.22V134Z" transform="translate(0 0)"/><path d="M602.26,75.38a8.35,8.35,0,0,1-6.3-2.59,8.8,8.8,0,0,1-2.49-6.31A8.71,8.71,0,0,1,596,60.12a8.43,8.43,0,0,1,6.3-2.55,8.28,8.28,0,0,1,6.26,2.55A8.83,8.83,0,0,1,611,66.48a8.93,8.93,0,0,1-2.44,6.31A8.21,8.21,0,0,1,602.26,75.38ZM594.1,134V82.48h16.22V134Z" transform="translate(0 0)"/><path d="M640.74,135.27a35.19,35.19,0,0,1-9-1.16,33.4,33.4,0,0,1-8.16-3.34,27,27,0,0,1-6.41-5l9.22-9.33a18.06,18.06,0,0,0,6,4.3,18.84,18.84,0,0,0,7.63,1.53,9.31,9.31,0,0,0,4.4-.84,2.58,2.58,0,0,0,1.54-2.34,3.17,3.17,0,0,0-1.85-2.91,22.92,22.92,0,0,0-4.72-1.8c-1.91-.53-3.92-1.12-6-1.75a27.38,27.38,0,0,1-6-2.65,13.26,13.26,0,0,1-4.66-4.72,16.55,16.55,0,0,1,.74-16.32,17.18,17.18,0,0,1,7.21-5.78A26.23,26.23,0,0,1,641.59,81a31.73,31.73,0,0,1,12.14,2.28A21.74,21.74,0,0,1,662.79,90l-9.22,9.33a13.72,13.72,0,0,0-5.46-4,16.29,16.29,0,0,0-5.89-1.17,8.47,8.47,0,0,0-4.13.8,2.5,2.5,0,0,0-1.38,2.28,2.85,2.85,0,0,0,1.8,2.54,21.53,21.53,0,0,0,4.67,1.7q2.87.74,6,1.8a28,28,0,0,1,6,2.86,14.22,14.22,0,0,1,4.67,4.83,15.26,15.26,0,0,1,1.8,7.89,14.44,14.44,0,0,1-5.67,12Q650.39,135.27,640.74,135.27Z" transform="translate(0 0)"/></g></g></g></g></g></g></svg>