<?xml version="1.0" encoding="utf-8"?>
<!-- Generator: Adobe Illustrator 26.0.2, SVG Export Plug-In . SVG Version: 6.00 Build 0)  -->
<svg version="1.1" id="Calque_1" xmlns="http://www.w3.org/2000/svg" xmlns:xlink="http://www.w3.org/1999/xlink" x="0px" y="0px"
	 viewBox="0 0 572.45 163.97" style="enable-background:new 0 0 572.45 163.97;" xml:space="preserve">
<style type="text/css">
	.st0{fill:#FFFFFF;}
	.st1{fill:#525CFF;}
</style>
<g>
	<path class="st1" d="M140.71,62.88l-15.19-26.31h-25.25L87.63,14.71H57.25L44.63,36.57H19.38L4.18,62.88l12.64,21.87L4.18,106.62
		l15.2,26.31h25.25l12.63,21.87h30.38l12.64-21.87h25.25l15.19-26.31l-12.63-21.87L140.71,62.88z M95.23,115.34l-5.04-8.72
		l5.04-8.72l5.04-8.72h20.12l10.06,17.44l-10.06,17.44h-20.12L95.23,115.34z M92.58,128.49L82.5,145.92H62.38l-10.06-17.43
		l5.03-8.72l5.03-8.72H82.5l5.04,8.72L92.58,128.49z M44.63,124.06H24.51l-10.07-17.44l10.07-17.44h20.12l5.03,8.72l5.03,8.72
		l-5.03,8.72L44.63,124.06z M49.66,54.16l5.03,8.72l-5.03,8.72l-5.03,8.72H24.51L14.44,62.88l10.07-17.44h20.12L49.66,54.16z
		 M52.32,41.01l10.06-17.43H82.5l10.07,17.43l-5.04,8.72l-5.04,8.72H62.38l-5.03-8.72L52.32,41.01z M100.27,45.44h20.12l10.06,17.44
		l-10.06,17.44h-20.12l-5.04-8.72l-5.04-8.72l5.04-8.72L100.27,45.44z M57.35,93.47l-5.03-8.72l5.03-8.72l5.03-8.72H82.5l5.04,8.72
		l5.04,8.72l-5.04,8.72l-5.04,8.72H62.38L57.35,93.47z"/>
</g>
<g>
	<g>
		<path d="M218.78,53.4h15.66v67.5h-15.66v-7.07c-6.42,6.01-13.33,9.01-20.72,9.01c-9.33,0-17.05-3.37-23.15-10.12
			c-6.05-6.88-9.08-15.48-9.08-25.78c0-10.12,3.03-18.55,9.08-25.3c6.05-6.75,13.63-10.12,22.73-10.12c7.85,0,14.9,3.23,21.14,9.7
			V53.4z M181.77,86.94c0,6.47,1.73,11.74,5.2,15.8c3.56,4.11,8.04,6.17,13.44,6.17c5.78,0,10.44-1.99,14-5.96
			c3.56-4.11,5.34-9.33,5.34-15.66s-1.78-11.55-5.34-15.66c-3.56-4.02-8.18-6.03-13.86-6.03c-5.36,0-9.84,2.03-13.44,6.1
			C183.55,75.8,181.77,80.89,181.77,86.94z"/>
	</g>
</g>
<g>
	<g>
		<path d="M259.91,151.69l-15.59,5.93V53.4h15.59v7.35c6.14-6.14,13.12-9.22,20.93-9.22c9.29,0,16.93,3.42,22.94,10.26
			c6.1,6.79,9.15,15.36,9.15,25.71c0,10.12-3.03,18.55-9.08,25.3c-6.01,6.7-13.58,10.05-22.73,10.05c-7.9,0-14.97-3.16-21.21-9.49
			V151.69z M296.99,87.56c0-6.47-1.76-11.74-5.27-15.8c-3.56-4.11-8.04-6.17-13.44-6.17c-5.73,0-10.37,1.99-13.93,5.96
			s-5.34,9.19-5.34,15.66c0,6.33,1.78,11.55,5.34,15.66c3.51,4.02,8.13,6.03,13.86,6.03c5.41,0,9.86-2.03,13.38-6.1
			C295.19,98.74,296.99,93.66,296.99,87.56z"/>
	</g>
</g>
<g>
	<g>
		<path d="M334.85,53.4v67.5h-15.59V53.4H334.85z"/>
	</g>
</g>
<g>
	<g>
		<path d="M394.2,12.72l15.66-8.88V120.9H394.2v-7.07c-6.14,6.01-13.1,9.01-20.86,9.01c-9.24,0-16.91-3.37-23.01-10.12
			c-6.05-6.88-9.08-15.48-9.08-25.78c0-10.07,3.03-18.48,9.08-25.23c6.01-6.79,13.56-10.19,22.66-10.19c7.9,0,14.97,3.23,21.21,9.7
			V12.72z M357.19,86.94c0,6.47,1.73,11.74,5.2,15.8c3.56,4.11,8.04,6.17,13.44,6.17c5.78,0,10.44-1.99,14-5.96
			c3.56-4.11,5.34-9.33,5.34-15.66s-1.78-11.55-5.34-15.66c-3.56-4.02-8.18-6.03-13.86-6.03c-5.36,0-9.84,2.03-13.44,6.1
			C358.97,75.8,357.19,80.89,357.19,86.94z"/>
	</g>
</g>
<g>
	<g>
		<path d="M469.31,53.4h15.66v67.5h-15.66v-7.07c-6.42,6.01-13.33,9.01-20.72,9.01c-9.33,0-17.05-3.37-23.15-10.12
			c-6.05-6.88-9.08-15.48-9.08-25.78c0-10.12,3.03-18.55,9.08-25.3s13.63-10.12,22.73-10.12c7.85,0,14.9,3.23,21.14,9.7V53.4z
			 M432.3,86.94c0,6.47,1.73,11.74,5.2,15.8c3.56,4.11,8.04,6.17,13.44,6.17c5.78,0,10.44-1.99,14-5.96
			c3.56-4.11,5.34-9.33,5.34-15.66s-1.78-11.55-5.34-15.66c-3.56-4.02-8.18-6.03-13.86-6.03c-5.36,0-9.84,2.03-13.44,6.1
			C434.08,75.8,432.3,80.89,432.3,86.94z"/>
	</g>
</g>
<g>
	<g>
		<path d="M516.58,108.35L486.22,53.4h18.09l20.65,38.81l19.27-38.81h17.6l-53.78,104.23h-17.81L516.58,108.35z"/>
	</g>
</g>
<g>
	<g>
		<path class="st1" d="M327.07,37.9c-7.05,0-12.79-5.73-12.79-12.79s5.74-12.79,12.79-12.79c7.05,0,12.79,5.74,12.79,12.79
			S334.11,37.9,327.07,37.9z M327.07,18.23c-3.79,0-6.87,3.08-6.87,6.88c0,3.79,3.08,6.87,6.87,6.87s6.87-3.08,6.87-6.87
			C333.94,21.31,330.86,18.23,327.07,18.23z"/>
	</g>
</g>
</svg>
