<?xml version="1.0" encoding="UTF-8"?>
<svg width="17.183mm" height="17.19mm" version="1.1" viewBox="0 0 17.183 17.19" xmlns="http://www.w3.org/2000/svg" xmlns:cc="http://creativecommons.org/ns#" xmlns:dc="http://purl.org/dc/elements/1.1/" xmlns:rdf="http://www.w3.org/1999/02/22-rdf-syntax-ns#" xmlns:xlink="http://www.w3.org/1999/xlink">
 <defs>
  <linearGradient id="linearGradient1295-1" x1="174.12" x2="201.97" y1="182.94" y2="212.22" gradientTransform="matrix(.76489 0 0 .76521 42.584 94.788)" gradientUnits="userSpaceOnUse">
   <stop stop-color="#001486" offset="0"/>
   <stop stop-color="#7e00e6" offset="1"/>
  </linearGradient>
 </defs>
 <metadata>
  <rdf:RDF>
   <cc:Work rdf:about="">
    <dc:format>image/svg+xml</dc:format>
    <dc:type rdf:resource="http://purl.org/dc/dcmitype/StillImage"/>
    <dc:title/>
   </cc:Work>
  </rdf:RDF>
 </metadata>
 <g transform="translate(-82.123 -89.679)">
  <g transform="translate(-93.644 -145.1)">
   <rect x="175.77" y="234.77" width="17.183" height="17.19" ry="0" fill="url(#linearGradient1295-1)"/>
   <g transform="matrix(.89199 0 0 .89199 96.301 118.78)" fill="#fff" shape-rendering="auto">
    <path d="m102.58 142.7c-0.25878-0.0232-0.30075 0.0928-0.68192 0.0862-0.4915-8e-3 -1.1441-0.071-1.5965-0.30403-0.45246-0.23299-0.89021-0.7098-1.6787-1.6182-0.15985-0.63526-0.61783-0.91357-0.97013-1.3162-0.88964-1.4113-1.8279-1.8613-2.4575-1.9179-0.45609-0.3985-0.74217-0.33428-0.28164-0.88574 0.29775 0.0267-0.02891-0.2069 0.33196-0.19364 0.39779 0.0146 1.1841-0.0404 1.7695 0.2722 0.58538 0.31257 1.0228 0.71016 1.8113 1.6185 0.21874 0.55579 0.53113 0.9245 0.96956 1.3161 0.88963 1.4113 1.8284 1.8614 2.4581 1.918 0.54033 0.34042 0.76999 0.24929 0.30953 0.83744z" color="#000000" color-rendering="auto" dominant-baseline="auto" fill-opacity=".49612" image-rendering="auto" solid-color="#000000" stop-color="#000000" style="font-feature-settings:normal;font-variant-alternates:normal;font-variant-caps:normal;font-variant-east-asian:normal;font-variant-ligatures:normal;font-variant-numeric:normal;font-variant-position:normal;font-variation-settings:normal;inline-size:0;isolation:auto;mix-blend-mode:normal;shape-margin:0;shape-padding:0;text-decoration-color:#000000;text-decoration-line:none;text-decoration-style:solid;text-indent:0;text-orientation:mixed;text-transform:none;white-space:normal"/>
    <path d="m95.076 136.55c-0.41458 0-0.88793 3e-3 -1.2966 0.12514-0.35263 0.10486-0.87724 0.30649-1.2265 0.82439-0.39098 0.57987-0.38328 1.3944-0.34586 2.4686v0.83946c0 0.61737 0.22076 1.1626 0.66218 1.4982 5.93e-4 2.6e-4 0.0018-2.7e-4 0.0024 0 0.43973 0.33587 1.0444 0.46694 1.7965 0.46695 0.74136 0 1.39-0.0649 1.8933-0.2694 0.61607-0.25033 1.2851-0.77636 2.1517-1.6106 0.43386-0.46951 0.71636-0.79675 1.0839-1.2241 1.0123-1.3261 1.987-1.6904 2.6192-1.6905 0.63219-1.1e-4 0.85467 0.0416 0.98024 0.0834 0.1222 0.0407 0.16973 0.0843 0.20392 0.13904l4e-3 4e-3c0.0332 0.0518 0.0689 0.15637 0.0689 0.33544v0.31516h-0.70334c-0.60892 0-1.1099 0.0538-1.5179 0.17786-0.41022 0.12466-0.75267 0.34149-0.97271 0.65986-0.21826 0.31579-0.31053 0.70999-0.31053 1.1523 0 0.58245 0.19945 1.1035 0.59962 1.4553l2e-3 2e-3c0.40185 0.34892 0.95161 0.50162 1.5932 0.50171h5.9e-4c0.41458 0 0.88794-3e-3 1.2966-0.12514 0.35262-0.10486 0.87724-0.3065 1.2265-0.8244 0.39097-0.57989 0.38328-1.3944 0.34586-2.4686v-0.83943c0-0.61737-0.22076-1.1626-0.66218-1.4982-5.9e-4 -2.5e-4 -2e-3 2.7e-4 -3e-3 0-0.43973-0.33586-1.0444-0.46695-1.7965-0.46695-0.74135 0-1.39 0.0649-1.8933 0.2694-0.61609 0.25033-1.2851 0.77636-2.1517 1.6106-0.4082 0.45404-0.71094 0.79609-1.0834 1.2241-1.0123 1.3261-1.9876 1.6904-2.6198 1.6905-0.63222 1.1e-4 -0.8547-0.0416-0.98027-0.0834-0.1222-0.0407-0.16973-0.0843-0.20393-0.13904l-0.0036-4e-3c-0.03322-0.0518-0.06894-0.15644-0.06894-0.33551v-0.31516h0.70332c0.60891 0 1.1099-0.0538 1.5179-0.17785 0.41021-0.12466 0.75266-0.34149 0.97271-0.65987 0.21826-0.31579 0.31053-0.70999 0.31053-1.1523 0-0.58245-0.19946-1.1035-0.59962-1.4553l-0.0024-2e-3c-0.40184-0.34888-0.9516-0.50158-1.5932-0.50167zm-0.19118 1.3968c0.32332 0 0.52076 0.0704 0.63843 0.16453 0.11638 0.0962 0.16627 0.19571 0.16627 0.41423 0 0.18893-0.03837 0.29332-0.084 0.35513-0.04496 0.0609-0.13011 0.12599-0.30473 0.17554h-0.0018c-0.17959 0.0529-0.45952 0.0881-0.82263 0.0881h-0.71259v-0.51561c0-0.24318 0.05873-0.35642 0.23058-0.47853 0.16679-0.11785 0.4564-0.20335 0.89044-0.20335zm8.0794 2.2629h0.71258v0.51561c0 0.24318-0.0587 0.35642-0.23057 0.47853-0.16679 0.11785-0.4564 0.20335-0.89044 0.20335-0.32333 0-0.52076-0.0704-0.63843-0.16454-0.11638-0.0962-0.16627-0.1957-0.16627-0.41422 0-0.18893 0.0384-0.29331 0.084-0.35514 0.045-0.0609 0.13011-0.12599 0.30473-0.17554h2e-3c0.17962-0.0529 0.45954-0.0881 0.82266-0.0881z" color="#000000" color-rendering="auto" dominant-baseline="auto" image-rendering="auto" solid-color="#000000" stop-color="#000000" style="font-feature-settings:normal;font-variant-alternates:normal;font-variant-caps:normal;font-variant-east-asian:normal;font-variant-ligatures:normal;font-variant-numeric:normal;font-variant-position:normal;font-variation-settings:normal;inline-size:0;isolation:auto;mix-blend-mode:normal;shape-margin:0;shape-padding:0;text-decoration-color:#000000;text-decoration-line:none;text-decoration-style:solid;text-indent:0;text-orientation:mixed;text-transform:none;white-space:normal"/>
   </g>
  </g>
 </g>
</svg>
