<svg width="123" height="38" viewBox="0 0 123 38" fill="none" xmlns="http://www.w3.org/2000/svg">
<g clip-path="url(#clip0_38_352)">
<path d="M28 37.0499V0.949951H34.5V37.0499H28Z" fill="#0A373F"/>
<path d="M40 37.0499V6.94995H46.5V37.0499H40Z" fill="#0A373F"/>
<path d="M24.12 6.99995V0.949951H6.5H0.12H0V37.0499H0.12H6.35H6.5V21.83H21.19V14.78H6.5V6.99995H24.12Z" fill="#0A373F"/>
<path fill-rule="evenodd" clip-rule="evenodd" d="M57.6191 14.71V37.0499H51.1191V6.94995H57.6191C60.2291 6.94995 64.0291 8.14995 65.5991 12.05C67.5891 17.01 70.6491 24.37 72.3591 26.89C74.2991 29.75 76.3391 29.69 78.1091 29.89V6.94995H84.6091V37.0499H78.1091C74.6491 36.7299 71.1691 35.35 68.5091 32.35C65.6891 29.17 62.8591 22.86 62.0891 20.84C59.4291 13.92 58.6991 14.7 57.6191 14.7V14.71Z" fill="#0A373F"/>
<path fill-rule="evenodd" clip-rule="evenodd" d="M95.7402 14.71V37.0499H89.2402V6.94995H95.7402C98.3502 6.94995 102.15 8.14995 103.72 12.05C105.71 17.01 108.77 24.37 110.48 26.89C112.42 29.75 114.46 29.69 116.23 29.89V6.94995H122.73V37.0499H116.23C112.77 36.7299 109.29 35.35 106.63 32.35C103.81 29.17 100.98 22.86 100.21 20.84C97.5502 13.92 96.8202 14.7 95.7402 14.7V14.71Z" fill="#0A373F"/>
</g>
<defs>
<clipPath id="clip0_38_352">
<rect width="122.74" height="36.1" fill="white" transform="translate(0 0.949951)"/>
</clipPath>
</defs>
</svg>