<?xml version="1.0" encoding="UTF-8" standalone="no"?>
<svg
   xmlns:dc="http://purl.org/dc/elements/1.1/"
   xmlns:cc="http://creativecommons.org/ns#"
   xmlns:rdf="http://www.w3.org/1999/02/22-rdf-syntax-ns#"
   xmlns:svg="http://www.w3.org/2000/svg"
   xmlns="http://www.w3.org/2000/svg"
   xmlns:sodipodi="http://sodipodi.sourceforge.net/DTD/sodipodi-0.dtd"
   xmlns:inkscape="http://www.inkscape.org/namespaces/inkscape"
   width="8.2826538in"
   height="1.6101612in"
   viewBox="0 0 210.37941 40.898094"
   version="1.1"
   id="svg8"
   inkscape:version="1.0.1 (c497b03c, 2020-09-10)"
   sodipodi:docname="mercanis_primary_logo.svg">
  <defs
     id="defs2" />
  <sodipodi:namedview
     id="base"
     pagecolor="#ffffff"
     bordercolor="#666666"
     borderopacity="1.0"
     inkscape:pageopacity="0.0"
     inkscape:pageshadow="2"
     inkscape:zoom="0.35"
     inkscape:cx="383.14289"
     inkscape:cy="544.96623"
     inkscape:document-units="mm"
     inkscape:current-layer="layer1"
     inkscape:document-rotation="0"
     showgrid="false"
     inkscape:window-width="1680"
     inkscape:window-height="992"
     inkscape:window-x="0"
     inkscape:window-y="711"
     inkscape:window-maximized="0"
     inkscape:showpageshadow="false"
     showborder="true"
     units="in"
     fit-margin-top="0"
     fit-margin-left="0"
     fit-margin-right="0"
     fit-margin-bottom="0" />
  <metadata
     id="metadata5">
    <rdf:RDF>
      <cc:Work
         rdf:about="">
        <dc:format>image/svg+xml</dc:format>
        <dc:type
           rdf:resource="http://purl.org/dc/dcmitype/StillImage" />
        <dc:title></dc:title>
      </cc:Work>
    </rdf:RDF>
  </metadata>
  <g
     inkscape:label="Layer 1"
     inkscape:groupmode="layer"
     id="layer1"
     transform="translate(-4.4601111,-3.9776848)">
    <path
       style="fill:#000000;stroke-width:0.105913"
       d="m 16.004602,41.399288 -5.98407,-3.47492 -0.02759,-4.625829 c -0.01517,-2.54422 -0.0065,-4.62585 0.01918,-4.62585 0.05077,0 3.60304,2.04112 8.799166,5.05597 l 3.283296,1.905 0.02759,4.621839 c 0.01517,2.54201 -0.0087,4.62114 -0.05295,4.62028 -0.0443,-6e-4 -2.77338,-1.56528 -6.064619,-3.47649 z m 22.267034,-1.13633 0.0276,-4.637899 3.283295,-1.90024 c 5.929367,-3.43168 8.751659,-5.05213 8.799166,-5.05213 0.02573,0 0.03436,2.08337 0.01918,4.6297 l -0.02759,4.629699 -1.853473,1.07121 c -1.019411,0.58916 -3.669972,2.127 -5.890137,3.41743 -2.220165,1.29042 -4.115185,2.37635 -4.211155,2.41318 -0.160663,0.0616 -0.172303,-0.30055 -0.146889,-4.57095 z M 139.65774,35.003169 c -1.75257,-0.44747 -2.715,-0.85399 -3.89661,-1.64592 -1.5088,-1.0112 -2.88857,-2.89688 -3.54401,-4.84343 -0.47989,-1.42525 -0.50303,-1.61788 -0.4963,-4.1306 l 0.006,-2.43599 0.32868,-0.9617 c 0.44649,-1.30637 0.70925,-1.85218 1.38593,-2.87885 1.31602,-1.99668 3.4806,-3.40199 6.10987,-3.96672 0.79986,-0.1718 3.50356,-0.22571 4.18355,-0.0834 0.88707,0.18562 1.37389,0.32164 2.01234,0.56226 2.15612,0.8126 4.2084,2.90371 5.08782,5.18413 0.37624,0.97564 0.69332,2.30696 0.60454,2.53832 -0.0558,0.14556 -0.43399,0.23382 -2.64832,0.61815 -0.85489,0.14838 -0.95047,0.0964 -1.13465,-0.61702 -0.63664,-2.46594 -1.96277,-4.00899 -4.01866,-4.67601 -0.51686,-0.16769 -0.95279,-0.22044 -1.82183,-0.22044 -1.99984,0 -3.0732,0.42594 -4.38894,1.74167 -1.28352,1.28353 -1.73838,2.32617 -1.94315,4.45423 -0.3204,3.32947 1.021,6.26264 3.37971,7.39028 1.2226,0.58449 3.12439,0.77549 4.48516,0.45044 2.05357,-0.49054 3.53291,-2.05612 4.20628,-4.45152 0.33477,-1.19083 0.30147,-1.16897 1.54783,-1.01586 1.76568,0.21692 2.1526,0.28598 2.27221,0.4056 0.15037,0.15037 -0.21674,1.85336 -0.61539,2.8548 -1.13902,2.86129 -3.56082,4.9091 -6.70721,5.67142 -0.62986,0.1526 -3.8562,0.19384 -4.39538,0.0561 z m 64.65974,0.0209 c -0.14563,-0.0477 -0.62224,-0.19447 -1.05913,-0.32614 -1.63857,-0.49381 -2.7617,-1.15785 -3.73335,-2.20732 -0.97271,-1.05063 -1.88002,-2.99989 -1.88002,-4.03904 0,-0.47643 0.0214,-0.48578 2.04879,-0.89233 1.5661,-0.31407 1.57684,-0.31095 1.82123,0.52975 0.34044,1.17105 1.40541,2.52307 2.37836,3.01944 1.02235,0.52156 1.34931,0.58122 3.1249,0.57013 1.85028,-0.0115 2.14811,-0.077 2.96348,-0.65178 0.67443,-0.47539 0.84611,-0.8572 0.84789,-1.88575 0.001,-0.77715 -0.026,-0.89154 -0.29822,-1.24847 -0.58373,-0.7653 -1.73669,-1.27252 -3.77794,-1.66202 -2.75873,-0.52641 -3.80551,-0.82873 -5.17144,-1.49358 -1.52013,-0.73991 -2.46805,-1.82294 -2.97621,-3.40046 -0.18001,-0.55881 -0.15382,-2.44854 0.0428,-3.08422 0.48039,-1.5536 1.44365,-2.71273 2.81732,-3.39019 1.38477,-0.68294 2.2986,-0.84879 4.65211,-0.84433 2.06441,0.004 2.54731,0.0812 3.91877,0.62755 1.22929,0.48966 2.86015,2.00613 3.39888,3.16047 0.44181,0.94664 0.83763,2.0868 0.83763,2.41275 0,0.32204 0.0559,0.29807 -1.42982,0.61292 -0.58252,0.12344 -1.25825,0.26991 -1.50163,0.32549 -0.24336,0.0556 -0.50603,0.0767 -0.58369,0.0469 -0.0777,-0.0298 -0.25362,-0.35133 -0.39102,-0.71452 -0.68361,-1.80677 -1.70941,-2.85801 -3.06281,-3.13876 -0.7126,-0.14782 -2.07945,-0.14979 -2.75937,-0.004 -1.4366,0.30809 -2.36993,1.56225 -2.13179,2.86456 0.10136,0.5543 0.36387,0.90928 0.9833,1.32966 0.65641,0.44546 1.41417,0.6861 4.11219,1.30588 2.87508,0.66046 2.87881,0.66146 3.65986,0.98228 1.76495,0.72497 3.08116,2.11816 3.56255,3.77089 0.14795,0.50796 0.14341,2.39287 -0.007,2.91828 -0.24611,0.8595 -0.88072,1.95538 -1.4917,2.57591 -0.45562,0.46276 -0.86849,0.74592 -1.61272,1.10607 -0.98963,0.47891 -1.44531,0.60695 -2.92713,0.82247 -0.88228,0.12832 -3.98464,0.1294 -4.37498,0.002 z M 72.138359,24.544599 v -10.17013 h 3.01226 c 1.86667,0 3.03683,0.0397 3.07685,0.1045 0.0355,0.0575 0.20031,0.4745 0.3662,0.92673 0.16589,0.45223 0.57319,1.53715 0.9051,2.41093 0.33192,0.87379 0.78585,2.08913 1.00875,2.70078 0.2229,0.61164 0.55619,1.5172 0.74063,2.01234 0.18444,0.49514 0.37515,1.01941 0.42378,1.16504 0.0486,0.14563 0.28511,0.81288 0.5255,1.48278 0.24039,0.6699 0.70498,2.01756 1.03241,2.99479 0.33614,1.0032 0.64506,1.76064 0.70952,1.73969 0.0628,-0.0204 0.35325,-0.74847 0.64544,-1.61793 1.00917,-3.00294 1.22571,-3.60953 2.92746,-8.20036 0.11876,-0.32039 0.2544,-0.67784 0.30142,-0.79435 0.047,-0.1165 0.23756,-0.61694 0.42342,-1.11208 0.18585,-0.49514 0.3765,-0.99558 0.42365,-1.11208 0.0472,-0.11651 0.237,-0.61695 0.42188,-1.11209 0.58401,-1.56409 0.35566,-1.41751 2.35132,-1.50932 0.95045,-0.0437 2.18087,-0.0675 2.73426,-0.053 l 1.006165,0.0265 0.027,10.1436 0.027,10.14359 -1.880475,-0.0289 -1.88048,-0.0289 0.0431,-8.11228 c 0.0279,-5.24676 0.006,-8.135 -0.061,-8.1766 -0.0593,-0.0367 -0.31406,0.58243 -0.59239,1.43977 -0.65349,2.01293 -1.73684,5.10442 -2.50346,7.14396 -0.5196,1.38233 -0.96247,2.56459 -1.23984,3.30977 -0.14095,0.37864 -0.57931,1.52249 -0.97414,2.54191 l -0.71787,1.85347 h -1.78471 c -1.47909,0 -1.79886,-0.0272 -1.86732,-0.15887 -0.0454,-0.0874 -0.17901,-0.421 -0.29685,-0.74139 -0.11785,-0.32039 -0.46077,-1.24977 -0.76207,-2.0653 -0.30129,-0.81553 -0.58568,-1.60193 -0.63197,-1.74756 -0.0463,-0.14563 -0.23454,-0.6699 -0.41834,-1.16504 -0.18379,-0.49515 -0.40492,-1.11473 -0.49139,-1.37687 -0.0865,-0.26213 -0.20009,-0.57193 -0.25247,-0.68843 -0.0524,-0.1165 -0.16599,-0.4263 -0.25246,-0.68843 -0.0865,-0.26214 -0.30685,-0.88173 -0.48972,-1.37687 -0.5276,-1.4285 -2.11746,-6.26949 -2.11746,-6.44747 0,-0.10699 -0.0355,-0.12596 -0.10526,-0.0562 -0.0674,0.0674 -0.115,3.05224 -0.13239,8.30886 l -0.0271,8.2036 -1.82699,0.029 -1.827,0.029 z m 25.762745,0.0247 0.027,-10.14186 h 7.255026 7.25502 v 1.80051 1.80052 l -5.29564,0.053 -5.29563,0.053 -0.0286,2.24958 -0.0286,2.24958 4.8476,0.0276 4.84762,0.0276 v 1.74756 1.74756 l -4.84749,0.0276 -4.8475,0.0276 0.0285,2.40844 0.0285,2.40845 5.40155,0.053 5.40155,0.053 v 1.74756 1.74756 l -7.38795,0.0272 -7.387946,0.0272 z m 16.990706,10.06982 c -0.0882,-0.0882 -0.0944,-19.86749 -0.006,-20.09711 0.0558,-0.14536 0.35357,-0.16729 2.25064,-0.16568 4.10884,0.004 9.12893,0.19558 9.70477,0.37141 2.21714,0.67698 3.55864,2.19435 3.92144,4.4355 0.12976,0.80157 0.131,1.09498 0.009,2.01015 -0.32047,2.39519 -1.1283,3.51487 -3.37732,4.6811 -0.8289,0.42983 -0.92346,0.50846 -0.85843,0.71389 0.0814,0.25713 0.89072,1.46244 2.11077,3.14345 2.77701,3.82621 3.43907,4.76896 3.43907,4.89701 0,0.0445 -1.00314,0.0809 -2.22921,0.0809 -2.21287,0 -2.23095,-0.002 -2.46248,-0.25242 -0.12829,-0.13883 -1.35327,-1.94709 -2.7222,-4.01837 -1.56481,-2.36766 -2.56759,-3.78742 -2.70077,-3.82378 -0.28998,-0.0791 -2.85501,-0.0762 -3.06281,0.004 -0.14869,0.057 -0.16753,0.51569 -0.16753,4.07764 v 4.01335 h -1.88877 c -1.03884,0 -1.92056,-0.0318 -1.95939,-0.0706 z m 8.36675,-11.4713 c 1.49566,-0.0835 1.77662,-0.12848 2.22417,-0.35574 0.65231,-0.33123 1.15328,-0.81111 1.35784,-1.30069 0.24005,-0.57451 0.21276,-1.85337 -0.0506,-2.3695 -0.22998,-0.45079 -0.8977,-0.96479 -1.48346,-1.14196 -0.20388,-0.0617 -1.73486,-0.14262 -3.40216,-0.17991 -2.74766,-0.0615 -3.03768,-0.0516 -3.09794,0.10546 -0.13023,0.33938 -0.0752,5.08283 0.0606,5.21858 0.15329,0.15328 1.90334,0.16276 4.39149,0.0238 z m 27.46707,11.46841 c 0,-0.0404 0.18569,-0.55277 0.41265,-1.13856 0.22696,-0.58579 0.7785,-2.01828 1.22566,-3.18332 0.99976,-2.60487 1.84785,-4.80158 1.96272,-5.08381 0.0474,-0.11651 0.33338,-0.85525 0.63547,-1.64165 0.3021,-0.7864 0.58802,-1.52514 0.63539,-1.64165 0.0474,-0.1165 0.27819,-0.71226 0.51296,-1.32391 1.75037,-4.56033 2.2803,-5.89415 2.38532,-6.00383 0.0792,-0.0828 0.80824,-0.15101 2.13415,-0.19983 1.6566,-0.061 2.03407,-0.0481 2.12797,0.0727 0.10822,0.13926 0.51901,1.16419 1.74621,4.3569 0.29667,0.77184 0.57817,1.49867 0.62554,1.61517 0.0474,0.11651 0.28571,0.7361 0.52965,1.37687 0.24395,0.64077 0.4823,1.26036 0.52967,1.37686 0.15242,0.37493 1.12819,2.90591 1.95995,5.08382 0.86084,2.254 1.81623,4.73374 1.95872,5.08381 0.32468,0.79772 0.42339,1.15472 0.34184,1.23626 -0.051,0.051 -0.94393,0.0796 -1.98436,0.0637 l -1.89165,-0.029 -0.35185,-1.00617 c -0.78487,-2.24455 -0.99107,-2.83022 -1.1746,-3.33625 l -0.19207,-0.52957 -4.23945,-0.0277 -4.23946,-0.0277 -0.1234,0.23949 c -0.10775,0.20912 -0.72265,1.86775 -0.97223,2.62252 -0.0482,0.14563 -0.23479,0.66532 -0.41475,1.15487 -0.17996,0.48954 -0.32719,0.90657 -0.32719,0.92673 0,0.0202 -0.8579,0.0367 -1.90644,0.0367 -1.04853,0 -1.90642,-0.0331 -1.90642,-0.0735 z m 12.81544,-8.33831 c 0,-0.14868 -1.30499,-3.8959 -1.91164,-5.48924 -0.77444,-2.03397 -0.97772,-2.51543 -1.06209,-2.51543 -0.13462,0 -0.25011,0.25769 -0.66452,1.48278 -0.20691,0.61165 -0.57276,1.66018 -0.813,2.33008 -0.24024,0.6699 -0.47611,1.33715 -0.52416,1.48278 -0.048,0.14563 -0.28274,0.81128 -0.52152,1.47922 -0.23881,0.66793 -0.43418,1.25178 -0.43418,1.29743 0,0.0456 1.3345,0.083 2.96555,0.083 2.49325,0 2.96556,-0.024 2.96556,-0.15061 z m 8.07532,-1.72934 0.027,-10.14114 2.82473,-0.0282 2.82474,-0.0282 0.20396,0.29298 c 0.11219,0.16113 0.38472,0.6266 0.60564,1.03436 0.22092,0.40777 0.60258,1.09885 0.84814,1.53574 0.42034,0.74782 0.63015,1.12846 1.40112,2.5419 0.78429,1.43786 1.02923,1.88433 1.2783,2.33008 0.14647,0.26214 0.39359,0.71491 0.54915,1.00617 0.15555,0.29126 0.51173,0.95851 0.7915,1.48278 0.27977,0.52427 0.66292,1.23918 0.85144,1.58869 0.18853,0.34951 0.69344,1.31696 1.12203,2.14988 0.58207,1.13119 0.79828,1.46621 0.85444,1.32391 0.0414,-0.10477 0.0785,-3.58632 0.0826,-7.73677 l 0.007,-7.54629 h 1.80052 1.80051 v 10.16762 10.16763 h -2.5203 -2.52028 l -0.64668,-1.13856 c -0.35567,-0.62621 -0.74057,-1.30538 -0.85533,-1.50926 -0.11476,-0.20388 -0.47009,-0.82347 -0.78962,-1.37686 -0.31953,-0.5534 -0.70018,-1.22065 -0.84591,-1.48279 -0.14571,-0.26213 -0.35947,-0.64341 -0.47501,-0.8473 -1.60731,-2.83639 -3.66828,-6.64169 -4.89822,-9.04389 -0.26515,-0.51786 -0.52975,-0.92297 -0.588,-0.90025 -0.0582,0.0227 -0.10373,0.25578 -0.10107,0.51791 0.002,0.26213 0.0443,3.9201 0.0926,8.1288 l 0.0877,7.6522 h -1.92012 -1.9201 z m 20.54707,0.002 0.027,-10.14358 1.759,-0.0289 c 1.39467,-0.023 1.78416,10e-4 1.88049,0.11741 0.0899,0.10834 0.11447,2.7448 0.0945,10.14364 l -0.027,9.99725 -1.88048,0.0289 -1.8805,0.0289 0.027,-10.14359 z m -173.035238,7.99216 c -1.630612,-0.94759 -5.192891,-3.00689 -7.916172,-4.5762 l -4.9514217,-2.8533 v -4.58526 c 0,-2.907 0.03779,-4.58525 0.103237,-4.58525 0.08471,0 9.7402157,5.52949 14.5392017,8.32627 l 1.244474,0.72526 v 4.63569 c 0,2.54963 -0.01228,4.63569 -0.02728,4.63569 -0.015,0 -1.361422,-0.77531 -2.992035,-1.7229 z m 19.118058,-2.90488 v -4.64791 l 0.556042,-0.32171 c 0.305823,-0.17694 2.772266,-1.59976 5.480985,-3.16183 2.708719,-1.56206 5.985413,-3.45292 7.281545,-4.2019 1.29613,-0.74898 2.404243,-1.36178 2.462471,-1.36178 0.06892,0 0.10587,1.59996 0.10587,4.58433 v 4.58432 l -3.468643,2.00138 c -2.774887,1.60114 -9.569811,5.52584 -11.968141,6.91276 l -0.450129,0.2603 z m -8.896671,-2.00771 c -0.912264,-0.49594 -8.381171,-4.8038 -19.037818,-10.98012 L 4.4601111,13.278539 V 8.6897058 c 0,-3.016236 0.03663,-4.588833 0.106878,-4.588833 0.05878,0 2.0486182,1.127063 4.4218572,2.504592 2.3732397,1.377523 6.6503567,3.8509042 9.5047047,5.4964022 2.854349,1.645498 6.635409,3.830852 8.402356,4.856342 1.766947,1.02549 3.255629,1.86453 3.308183,1.86453 0.05255,0 0.322655,-0.13681 0.600228,-0.30403 0.277572,-0.16722 3.006865,-1.74752 6.065096,-3.51177 C 45.983031,9.7494288 55.221469,4.4094078 55.589493,4.1863288 l 0.344217,-0.208644 v 4.653783 4.6537842 l -1.826995,1.054927 c -1.004848,0.58018 -3.638104,2.10524 -5.85168,3.38902 -8.714807,5.05423 -17.974479,10.41386 -17.989425,10.41254 -0.0087,-6e-4 -0.420859,-0.22178 -0.916001,-0.49116 z"
       id="path913"
       inkscape:transform-center-x="-58.554644"
       inkscape:transform-center-y="12.255618" />
  </g>
</svg>
