<svg width="73" height="19" viewBox="0 0 73 19" fill="none" xmlns="http://www.w3.org/2000/svg">
<path fill-rule="evenodd" clip-rule="evenodd" d="M66.5799 8.69803H61.5293V3.55462H66.5799C67.9724 3.55462 69.1052 4.70834 69.1052 6.12633C69.1052 7.54431 67.9724 8.69803 66.5799 8.69803ZM66.5803 0H61.5297H60.3641H57.6445V18.991H61.5297V12.265H66.5803C70.2711 12.265 72.9907 9.51943 72.9907 6.1325C72.9907 2.74557 70.2711 0 66.5803 0Z" fill="#101010"/>
<path fill-rule="evenodd" clip-rule="evenodd" d="M8.76207 15.4332H4.87693V3.56389H8.76207C11.9754 3.56389 14.5897 6.22612 14.5897 9.49855C14.5897 12.771 11.9754 15.4332 8.76207 15.4332ZM8.76247 0.00927734H4.87733H3.32325H0.992188V19.0002H3.32325H4.87733H8.76247C14.2016 19.0002 18.4753 14.7489 18.4753 9.50473C18.4753 4.26054 14.2016 0.00927734 8.76247 0.00927734Z" fill="#101010"/>
<path fill-rule="evenodd" clip-rule="evenodd" d="M45.2461 18.991H48.7397V0H45.2461V18.991Z" fill="#101010"/>
<path fill-rule="evenodd" clip-rule="evenodd" d="M54.8171 14.9511L52.3468 17.4689L39.1719 4.04031L41.6422 1.52246L54.8171 14.9511Z" fill="#101010"/>
<path fill-rule="evenodd" clip-rule="evenodd" d="M37.6758 11.2727H56.308V7.71191H37.6758V11.2727Z" fill="#101010"/>
<path fill-rule="evenodd" clip-rule="evenodd" d="M52.3468 1.52246L54.8171 4.04031L41.6422 17.4689L39.1719 14.9511L52.3468 1.52246Z" fill="#101010"/>
<path fill-rule="evenodd" clip-rule="evenodd" d="M29.9343 8.70731H24.6894V3.56389H29.9343C31.3267 3.56389 32.4596 4.71762 32.4596 6.1356C32.4596 7.55358 31.3267 8.70731 29.9343 8.70731ZM36.3451 6.14178C36.3451 2.75472 33.6255 0.00927734 29.9347 0.00927734H24.6898H23.7184H20.8047V19.0002H24.6898V12.2743H27.8579L31.6712 19.0002H36.1574L32.1433 11.9199C34.66 11.0747 36.3451 8.80734 36.3451 6.14178Z" fill="#101010"/>
</svg>
